<svg width="36" height="36" viewBox="0 0 36 36" fill="none" xmlns="http://www.w3.org/2000/svg">
<rect width="36" height="36" stroke="#BCC1CA"/>
<path d="M34.4 22.92V13.08C34.4 6.73975 29.2602 1.59998 22.92 1.59998H13.08C6.73973 1.59998 1.59996 6.73975 1.59996 13.08V22.92C1.59996 29.2602 6.73973 34.4 13.08 34.4H22.92C29.2602 34.4 34.4 29.2602 34.4 22.92Z" fill="#878CED"/>
<path fill-rule="evenodd" clip-rule="evenodd" d="M7.6251 32.8245C5.29671 31.46 3.50082 29.3035 2.59386 26.7116C1.94965 24.8705 1.94965 22.5803 1.94965 18C1.94965 13.4196 1.94965 11.1294 2.59387 9.28838C3.50082 6.69644 5.29671 4.53996 7.6251 3.17542L20.5942 16.1445C21.2437 16.794 21.5684 17.1187 21.6901 17.4932C21.7971 17.8226 21.7971 18.1774 21.6901 18.5068C21.5684 18.8812 21.2437 19.206 20.5942 19.8554L7.6251 32.8245Z" fill="#636AE8"/>
<path d="M14.5455 18.5807L15.128 18L14.5455 17.4193L10.4427 13.3293C10.282 13.1691 10.282 12.9088 10.4427 12.7486L12.7722 10.4264C12.9323 10.2669 13.1912 10.2669 13.3512 10.4264L20.6572 17.7096C20.818 17.8698 20.818 18.1301 20.6572 18.2903L13.3512 25.5736C13.1912 25.7331 12.9323 25.7331 12.7722 25.5736L10.4427 23.2513C10.282 23.0911 10.282 22.8308 10.4427 22.6706L14.5455 18.5807Z" stroke="white" stroke-width="1.64" stroke-linecap="round"/>
<path d="M22.09 13.08L27.01 18L22.09 22.92" stroke="white" stroke-width="1.64" stroke-linecap="round"/>
</svg>
