<svg width="100" height="20" viewBox="0 0 100 20" fill="none" xmlns="http://www.w3.org/2000/svg">
<path d="M9.36392 1.83362C9.59934 1.26761 10.4012 1.26762 10.6366 1.83363L12.5729 6.48912C12.6722 6.72774 12.8966 6.89077 13.1542 6.91143L18.1802 7.31435C18.7913 7.36335 19.039 8.12591 18.5734 8.52469L14.7442 11.8049C14.5479 11.973 14.4622 12.2369 14.5222 12.4882L15.6921 17.3927C15.8343 17.989 15.1856 18.4603 14.6625 18.1408L10.3595 15.5125C10.139 15.3779 9.86159 15.3779 9.64109 15.5125L5.33809 18.1408C4.81494 18.4603 4.16626 17.989 4.30849 17.3927L5.4784 12.4882C5.53837 12.2369 5.45265 11.973 5.25639 11.8049L1.4271 8.52469C0.961545 8.12591 1.20932 7.36335 1.82038 7.31435L6.84638 6.91143C7.10398 6.89077 7.32838 6.72774 7.42763 6.48912L9.36392 1.83362Z" fill="url(#paint0_linear_1_108)"/>
<path d="M29.3639 1.83362C29.5993 1.26761 30.4012 1.26762 30.6366 1.83363L32.5729 6.48912C32.6722 6.72774 32.8966 6.89077 33.1542 6.91143L38.1802 7.31435C38.7913 7.36335 39.039 8.12591 38.5734 8.52469L34.7442 11.8049C34.5479 11.973 34.4622 12.2369 34.5222 12.4882L35.6921 17.3927C35.8343 17.989 35.1856 18.4603 34.6625 18.1408L30.3595 15.5125C30.139 15.3779 29.8616 15.3779 29.6411 15.5125L25.3381 18.1408C24.8149 18.4603 24.1663 17.989 24.3085 17.3927L25.4784 12.4882C25.5384 12.2369 25.4527 11.973 25.2564 11.8049L21.4271 8.52469C20.9615 8.12591 21.2093 7.36335 21.8204 7.31435L26.8464 6.91143C27.104 6.89077 27.3284 6.72774 27.4276 6.48912L29.3639 1.83362Z" fill="url(#paint1_linear_1_108)"/>
<path d="M49.3639 1.83362C49.5993 1.26761 50.4012 1.26762 50.6366 1.83363L52.5729 6.48912C52.6722 6.72774 52.8966 6.89077 53.1542 6.91143L58.1802 7.31435C58.7913 7.36335 59.039 8.12591 58.5734 8.52469L54.7442 11.8049C54.5479 11.973 54.4622 12.2369 54.5222 12.4882L55.6921 17.3927C55.8343 17.989 55.1856 18.4603 54.6625 18.1408L50.3595 15.5125C50.139 15.3779 49.8616 15.3779 49.6411 15.5125L45.3381 18.1408C44.8149 18.4603 44.1663 17.989 44.3085 17.3927L45.4784 12.4882C45.5384 12.2369 45.4527 11.973 45.2564 11.8049L41.4271 8.52469C40.9615 8.12591 41.2093 7.36335 41.8204 7.31435L46.8464 6.91143C47.104 6.89077 47.3284 6.72774 47.4276 6.48912L49.3639 1.83362Z" fill="url(#paint2_linear_1_108)"/>
<path d="M69.3639 1.83362C69.5993 1.26761 70.4012 1.26762 70.6366 1.83363L72.5729 6.48912C72.6722 6.72774 72.8966 6.89077 73.1542 6.91143L78.1802 7.31435C78.7913 7.36335 79.039 8.12591 78.5734 8.52469L74.7442 11.8049C74.5479 11.973 74.4622 12.2369 74.5222 12.4882L75.6921 17.3927C75.8343 17.989 75.1856 18.4603 74.6625 18.1408L70.3595 15.5125C70.139 15.3779 69.8616 15.3779 69.6411 15.5125L65.3381 18.1408C64.8149 18.4603 64.1663 17.989 64.3085 17.3927L65.4784 12.4882C65.5384 12.2369 65.4527 11.973 65.2564 11.8049L61.4271 8.52469C60.9615 8.12591 61.2093 7.36335 61.8204 7.31435L66.8464 6.91143C67.104 6.89077 67.3284 6.72774 67.4276 6.48912L69.3639 1.83362Z" fill="url(#paint3_linear_1_108)"/>
<path d="M89.3639 1.83362C89.5993 1.26761 90.4012 1.26762 90.6366 1.83363L92.5729 6.48912C92.6722 6.72774 92.8966 6.89077 93.1542 6.91143L98.1802 7.31435C98.7913 7.36335 99.039 8.12591 98.5734 8.52469L94.7442 11.8049C94.5479 11.973 94.4622 12.2369 94.5222 12.4882L95.6921 17.3927C95.8343 17.989 95.1856 18.4603 94.6625 18.1408L90.3595 15.5125C90.139 15.3779 89.8616 15.3779 89.6411 15.5125L85.3381 18.1408C84.8149 18.4603 84.1663 17.989 84.3085 17.3927L85.4784 12.4882C85.5384 12.2369 85.4527 11.973 85.2564 11.8049L81.4271 8.52469C80.9615 8.12591 81.2093 7.36335 81.8204 7.31435L86.8464 6.91143C87.104 6.89077 87.3284 6.72774 87.4276 6.48912L89.3639 1.83362Z" fill="url(#paint4_linear_1_108)"/>
<defs>
<linearGradient id="paint0_linear_1_108" x1="1.1853" y1="1.40912" x2="18.8152" y2="1.40912" gradientUnits="userSpaceOnUse">
<stop offset="0.4999" stop-color="#F3C63F"/>
<stop offset="0.5" stop-color="#F3C63F"/>
</linearGradient>
<linearGradient id="paint1_linear_1_108" x1="21.1853" y1="1.40912" x2="38.8152" y2="1.40912" gradientUnits="userSpaceOnUse">
<stop offset="0.4999" stop-color="#F3C63F"/>
<stop offset="0.5" stop-color="#F3C63F"/>
</linearGradient>
<linearGradient id="paint2_linear_1_108" x1="41.1853" y1="1.40912" x2="58.8152" y2="1.40912" gradientUnits="userSpaceOnUse">
<stop offset="0.4999" stop-color="#F3C63F"/>
<stop offset="0.5" stop-color="#F3C63F"/>
</linearGradient>
<linearGradient id="paint3_linear_1_108" x1="61.1853" y1="1.40912" x2="78.8152" y2="1.40912" gradientUnits="userSpaceOnUse">
<stop offset="0.4999" stop-color="#F3C63F"/>
<stop offset="0.5" stop-color="#F3C63F"/>
</linearGradient>
<linearGradient id="paint4_linear_1_108" x1="81.1853" y1="1.40912" x2="98.8152" y2="1.40912" gradientUnits="userSpaceOnUse">
<stop offset="0.4999" stop-color="#F3C63F"/>
<stop offset="0.5" stop-color="#F3C63F"/>
</linearGradient>
</defs>
</svg>
